# xmcd
#
# Track frame offsets:
#	150
#	17210
#	40878
#	57437
#	72646
#	87479
#	103369
#	125457
#	147518
#	168232
#	190977
#
# Disc length: 2607 seconds
#
# Revision: 1
# Processed by: cddbd v1.5.2PL0 Copyright (c) Steve Scherf et al.
# Submitted via: audiograbber 1.83.01
#
DISCID=a90a2d0b
DTITLE=Ernie Lancaster - Lightnin' Alley
DYEAR=2008
DGENRE=Blues Rock
TTITLE0=Austintatious
TTITLE1=Moccasin Path
TTITLE2=Lazy Bones
TTITLE3=Rootin' Around
TTITLE4=Three Cool Cats
TTITLE5=Satellite Farm
TTITLE6=Carolina Rain
TTITLE7=Late Freight
TTITLE8=Down At Ray's
TTITLE9=Lightnin' Alley
TTITLE10=Ethan's Song
EXTD=
EXTT0=
EXTT1=
EXTT2=
EXTT3=
EXTT4=
EXTT5=
EXTT6=
EXTT7=
EXTT8=
EXTT9=
EXTT10=
PLAYORDER=
